# xmcd
#
# Track frame offsets:
#	150
#	17038
#	35455
#	47114
#	65176
#	93857
#	106159
#	123249
#	136276
#
# Disc length: 2094 seconds
#
# Revision: 1
# Processed by: cddbd v1.5.2PL0 Copyright (c) Steve Scherf et al.
# Submitted via: audiograbber 1.82.02
#
DISCID=74082c09
DTITLE=Little Roger and the Cheap Thrills - i ain't playin
DYEAR=2003
DGENRE=Blues
TTITLE0=Star city blues
TTITLE1=I need your love
TTITLE2=Moped momma
TTITLE3=I miss your loving
TTITLE4=Fatherless blues
TTITLE5=I ain't playing
TTITLE6=Waffle house blues
TTITLE7=I'm a fool
TTITLE8=Afternoon tea for two
EXTD=
EXTT0=
EXTT1=
EXTT2=
EXTT3=
EXTT4=
EXTT5=
EXTT6=
EXTT7=
EXTT8=
PLAYORDER=
